<?xml version="1.0" standalone="no"?>
<!DOCTYPE svg PUBLIC "-//W3C//DTD SVG 20010904//EN"
 "http://www.w3.org/TR/2001/REC-SVG-20010904/DTD/svg10.dtd">
<svg version="1.0" xmlns="http://www.w3.org/2000/svg"
 width="767.000000pt" height="652.000000pt" viewBox="0 0 767.000000 652.000000"
 preserveAspectRatio="xMidYMid meet">

<g transform="translate(0.000000,652.000000) scale(0.100000,-0.100000)"
fill="#000000" stroke="none">
<path d="M997 6496 c5 -26 -39 -96 -61 -96 -15 0 -46 -62 -46 -90 0 -23 10
-26 28 -8 6 6 15 9 19 5 9 -9 -27 -36 -48 -37 -9 0 -27 -11 -40 -25 -13 -13
-34 -25 -47 -25 -20 0 -23 -4 -20 -36 2 -23 -2 -39 -9 -41 -7 -3 -13 2 -13 11
0 9 -4 16 -10 16 -5 0 -10 -10 -10 -23 0 -28 -17 -47 -43 -47 -10 0 -21 -8
-24 -18 -2 -10 -14 -22 -25 -27 -33 -15 -34 -35 -3 -35 15 0 24 -4 20 -10 -3
-5 -1 -10 4 -10 6 0 11 -4 11 -9 0 -5 -8 -8 -17 -7 -23 2 -68 -65 -51 -75 16
-10 21 -59 7 -75 -5 -7 -22 -15 -36 -19 -31 -7 -76 -52 -70 -68 2 -6 19 -15
38 -20 47 -12 83 -46 67 -64 -6 -8 -21 -13 -32 -12 -39 3 -55 -1 -70 -17 -22
-22 -20 -44 4 -44 13 0 20 -7 20 -18 0 -11 9 -27 20 -37 24 -21 20 -29 -26
-51 -41 -19 -71 -59 -79 -102 -6 -38 7 -47 44 -29 25 12 31 12 50 -3 18 -13
20 -18 9 -27 -24 -19 -58 -22 -73 -6 -13 13 -15 13 -15 -1 0 -9 5 -16 11 -16
6 0 9 -7 5 -15 -5 -15 3 -31 51 -106 13 -19 23 -38 23 -42 0 -4 -14 -21 -31
-36 l-31 -28 31 -11 c21 -8 31 -18 31 -31 0 -12 4 -21 9 -21 16 0 41 -30 41
-49 0 -23 -43 -44 -59 -28 -8 8 -11 2 -11 -23 0 -29 33 -109 66 -161 22 -34
54 -147 54 -187 0 -28 6 -49 15 -56 13 -10 13 -15 1 -38 -13 -25 -12 -28 9
-42 28 -19 38 -73 19 -103 -8 -12 -14 -33 -14 -45 -1 -28 -35 -94 -47 -90 -13
4 -15 -45 -2 -70 18 -32 30 -94 32 -159 2 -48 6 -59 32 -82 17 -15 36 -27 43
-27 7 0 34 -15 62 -32 59 -39 61 -56 20 -122 -50 -78 -49 -96 3 -128 24 -16
51 -28 60 -28 38 0 46 -82 12 -120 -31 -34 -23 -61 25 -90 25 -15 51 -25 58
-22 6 2 12 -1 12 -7 0 -6 6 -11 13 -11 24 0 44 -61 33 -101 -8 -31 -6 -41 12
-64 12 -15 22 -37 22 -48 0 -16 3 -17 15 -7 24 20 60 3 90 -42 26 -39 27 -46
23 -129 -6 -91 0 -109 35 -109 11 0 38 -21 61 -46 48 -52 102 -69 163 -52 46
13 60 6 129 -56 60 -56 105 -73 125 -49 17 20 35 16 95 -22 30 -19 65 -35 78
-35 13 0 29 -7 36 -15 7 -8 16 -13 20 -10 11 7 23 -50 16 -73 -7 -22 -66 -52
-103 -52 -29 0 -93 21 -93 30 0 3 -11 7 -24 8 -13 1 -41 11 -61 23 -29 17 -54
22 -122 23 -68 1 -88 5 -98 19 -7 9 -24 17 -37 17 -17 0 -34 11 -52 35 -15 19
-33 35 -40 35 -8 0 -30 18 -50 40 -23 26 -45 40 -60 40 -24 0 -76 53 -76 77 0
10 -40 41 -80 61 -14 7 -30 23 -35 35 -7 15 -23 24 -52 30 -36 7 -43 12 -48
39 -6 25 -3 34 20 54 33 28 29 62 -11 97 -14 12 -37 40 -50 63 -13 22 -41 50
-64 63 -22 12 -68 54 -101 93 -34 39 -74 82 -89 95 -16 13 -42 44 -59 70 -25
37 -31 57 -31 98 0 34 -5 57 -15 65 -23 19 -29 50 -11 63 14 11 14 16 -1 59
-10 26 -27 52 -38 58 -36 20 -47 49 -51 148 -4 106 -19 151 -66 195 -45 42
-62 13 -20 -35 18 -21 9 -48 -15 -48 -10 0 -30 12 -45 25 -28 24 -36 53 -18
71 24 24 -54 144 -95 144 -22 0 -38 -48 -31 -97 3 -24 3 -49 0 -57 -7 -18 -41
-9 -58 16 -13 18 -11 28 11 87 13 36 33 75 43 86 10 11 22 42 27 70 11 65 40
83 96 58 25 -12 37 -24 37 -38 1 -20 1 -20 19 2 20 24 21 104 1 129 -12 14 -7
45 7 43 21 -3 34 2 27 12 -3 6 -16 8 -28 5 -23 -6 -66 24 -66 44 0 6 -9 10
-21 10 -12 0 -41 20 -66 45 -46 47 -63 55 -63 30 0 -18 -11 -19 -29 -2 -11 10
-14 10 -18 0 -3 -7 -11 -13 -19 -13 -8 0 -14 -9 -14 -21 0 -11 -4 -17 -10 -14
-15 9 -12 48 5 71 8 10 15 32 15 48 0 20 4 27 14 23 10 -4 13 -1 9 9 -6 16
-23 19 -23 4 0 -5 -9 -10 -20 -10 -20 0 -20 -7 -20 -1675 0 -1110 3 -1675 10
-1675 6 0 10 4 10 10 0 5 6 7 14 4 8 -3 22 4 32 15 11 10 33 23 49 27 17 4 45
16 64 26 18 11 40 17 47 14 7 -3 16 -1 19 4 3 5 31 8 62 6 31 -2 51 -1 44 4
-26 16 111 23 336 17 33 -1 59 2 56 6 -2 4 8 5 23 1 15 -4 45 -7 68 -6 214 2
212 1 234 23 12 11 27 17 32 14 6 -3 10 -2 10 4 0 6 11 13 25 17 14 3 25 9 25
13 0 4 16 13 35 20 19 7 35 17 35 22 0 5 6 9 14 9 7 0 19 7 26 16 8 8 29 22
47 29 22 9 32 19 27 26 -4 7 -3 9 4 5 6 -3 32 7 58 24 26 16 53 30 59 30 6 0
27 11 47 25 58 39 127 74 172 86 22 6 46 20 54 30 7 10 18 19 24 19 19 0 47
31 41 46 -6 15 21 79 37 89 6 3 10 13 10 21 0 8 5 20 10 27 6 7 24 31 41 55
48 68 63 56 67 -53 2 -49 7 -94 12 -99 6 -6 10 -21 10 -36 0 -14 13 -39 31
-57 21 -23 25 -33 15 -33 -9 0 -16 6 -17 13 -1 6 -5 1 -9 -13 -11 -34 -12 -52
-2 -46 5 3 8 -10 7 -29 0 -19 2 -35 6 -35 3 0 7 -31 8 -70 2 -65 0 -70 -19
-70 -16 0 -20 -4 -15 -19 6 -19 -18 -36 -36 -25 -5 3 -9 0 -9 -5 0 -6 8 -11
18 -11 16 -1 16 -2 -2 -15 -10 -7 -16 -17 -13 -22 3 -4 -9 -9 -27 -10 -25 -1
-35 4 -48 28 -20 34 -34 37 -43 9 -3 -11 -10 -20 -14 -20 -4 0 -5 -27 -3 -60
4 -60 4 -60 -28 -71 -30 -11 -32 -14 -27 -53 6 -60 26 -155 43 -207 8 -26 19
-69 23 -95 5 -27 18 -94 29 -149 11 -55 26 -129 32 -165 11 -63 30 -126 55
-185 22 -53 53 -139 65 -180 11 -35 55 -157 81 -223 10 -27 38 -40 48 -23 4 6
14 9 23 6 11 -4 14 -20 13 -62 -2 -47 3 -64 28 -104 l30 -49 59 0 c33 0 68 5
79 10 11 6 19 7 19 1 0 -5 48 -9 108 -9 59 -1 100 2 92 5 -22 8 -46 36 -69 79
-22 40 -19 63 5 39 20 -19 25 -19 17 1 -5 15 -3 15 20 -1 30 -19 35 -35 12
-35 -20 0 -19 -14 3 -31 15 -13 16 -12 3 4 -15 19 -5 22 33 7 14 -5 28 -20 32
-35 5 -20 11 -24 30 -21 14 3 22 1 19 -4 -3 -4 58 -9 136 -9 94 -1 138 2 134
9 -3 5 1 10 9 10 9 0 16 -4 16 -10 0 -7 318 -10 934 -10 l934 0 7 41 c4 25 3
45 -3 51 -8 8 -6 20 4 40 21 41 15 82 -13 86 -31 5 -29 30 2 38 30 7 32 16 39
149 13 225 32 341 76 475 25 74 47 154 55 202 3 18 11 48 17 65 9 25 9 36 1
44 -9 9 -7 22 8 51 11 21 25 41 32 44 16 6 19 84 3 84 -8 0 -7 3 1 8 6 4 16
20 22 35 6 15 16 27 23 27 15 0 48 53 49 78 0 10 3 12 5 5 8 -18 32 -4 27 16
-3 11 5 24 21 34 13 9 26 27 28 39 2 17 13 25 41 32 36 9 38 12 35 42 -2 18
-1 31 3 28 11 -6 38 54 45 98 4 21 10 38 14 38 4 0 13 21 20 47 6 26 15 50 20
53 5 3 11 24 13 47 3 23 15 52 26 64 12 13 21 28 22 33 1 20 7 40 34 116 32
90 47 162 45 214 0 26 7 51 23 76 14 20 27 54 31 76 17 110 25 153 39 191 10
29 12 56 7 90 -5 28 -4 56 2 67 6 11 11 58 12 105 1 75 5 93 31 140 31 56 80
101 109 101 9 0 14 4 11 10 -3 5 0 8 7 5 7 -3 25 6 40 20 15 14 31 25 35 25
22 1 63 53 73 91 13 50 54 99 83 99 33 0 77 30 137 93 19 20 42 37 50 37 13 0
13 2 0 10 -13 8 -11 11 7 16 16 4 26 18 33 46 6 21 17 41 24 44 8 3 22 26 31
52 20 52 30 62 62 62 19 0 21 5 20 49 -2 61 14 83 41 58 33 -30 45 -21 57 44
2 12 11 29 20 39 8 9 13 19 10 21 -10 10 23 94 41 104 29 15 104 97 104 112 0
7 16 44 35 82 19 37 35 73 35 78 0 5 11 24 25 43 14 19 25 44 25 55 0 12 7 37
16 56 48 102 70 145 81 156 6 7 15 23 19 36 9 31 34 57 55 57 25 0 27 28 7 83
-19 51 -23 93 -10 101 5 3 7 18 4 34 -3 22 2 34 22 50 23 17 26 27 25 69 -2
37 5 61 25 98 24 41 28 62 30 137 1 48 7 93 12 98 14 14 6 53 -15 77 -28 31
-71 99 -71 111 0 7 11 18 25 24 30 13 33 28 5 21 -21 -5 -28 11 -10 22 6 3 10
24 10 45 0 21 5 42 10 45 14 9 12 53 -2 57 -7 3 -13 11 -14 19 0 8 -12 40 -27
72 -30 63 -32 71 -17 62 26 -16 6 29 -29 63 -21 20 -41 47 -45 60 -6 19 -4 22
20 22 26 0 26 1 11 18 -10 10 -17 28 -17 40 0 13 -6 22 -15 22 -8 0 -15 4 -15
10 0 5 -11 33 -24 62 -13 29 -30 67 -37 85 -9 22 -22 33 -42 37 -16 3 -1302 6
-2858 6 l-2829 0 -21 -21 c-23 -23 -45 -21 -43 5 1 12 -7 16 -41 16 -39 0 -42
-2 -38 -24z m-125 -446 c3 -38 2 -40 -24 -40 -22 0 -28 5 -28 22 0 21 26 58
40 58 5 0 10 -18 12 -40z m6163 -109 c-9 -16 -25 -3 -18 15 4 10 9 12 15 6 6
-6 7 -15 3 -21z m-3012 -652 c21 -5 44 -21 54 -35 12 -19 23 -24 41 -21 16 3
33 -2 45 -14 12 -10 26 -19 33 -19 7 0 14 -8 16 -17 3 -16 5 -15 23 3 28 29
55 37 73 22 8 -7 35 -14 60 -16 26 -1 49 -7 52 -12 3 -5 22 -11 43 -13 20 -2
40 -7 44 -10 3 -4 24 -7 45 -7 35 0 39 -3 44 -30 4 -16 10 -27 15 -24 5 3 9
-2 9 -10 0 -10 9 -16 24 -16 13 0 26 -5 28 -11 2 -6 12 5 23 24 15 28 24 35
44 32 14 -2 29 -4 34 -4 4 -1 7 -10 7 -21 0 -19 10 -24 39 -21 7 2 10 -2 7 -7
-3 -5 3 -12 14 -15 13 -3 18 -10 14 -21 -7 -19 -3 -20 31 -4 19 8 25 18 23 37
-3 23 1 26 31 29 31 3 33 2 21 -12 -11 -14 -10 -16 5 -10 13 5 16 4 11 -4 -5
-8 0 -12 14 -12 28 0 15 -20 -13 -21 -15 0 -17 -2 -7 -6 8 -3 18 -11 22 -17 5
-7 8 -5 8 5 0 9 6 19 13 22 13 5 18 -56 5 -69 -4 -4 -2 -14 5 -22 7 -10 8 -13
1 -9 -7 4 -14 -2 -17 -13 -3 -11 -1 -20 4 -20 5 0 9 -6 9 -14 0 -7 7 -19 15
-26 14 -12 14 -15 -1 -31 -11 -12 -14 -27 -10 -44 6 -23 4 -26 -13 -20 -12 3
-19 1 -18 -7 1 -36 -4 -47 -18 -42 -11 4 -13 2 -9 -9 13 -36 56 -27 69 14 4
11 11 16 17 13 7 -5 9 2 6 20 -3 14 -1 26 4 26 5 0 8 -15 6 -32 -2 -18 -7 -32
-13 -31 -5 1 -13 -7 -17 -17 -4 -11 -30 -29 -57 -41 -28 -11 -56 -29 -63 -38
-12 -14 -11 -14 4 -3 26 21 108 43 105 30 -1 -7 6 -14 15 -16 14 -3 16 1 11
15 -3 10 -3 15 1 12 4 -4 11 -20 16 -38 7 -24 6 -31 -6 -31 -8 0 -14 -7 -14
-15 0 -9 6 -12 16 -8 14 5 14 3 3 -15 -12 -19 -11 -23 6 -36 16 -12 18 -17 8
-27 -15 -16 -17 -39 -3 -39 6 0 10 7 10 15 0 8 5 15 10 15 6 0 10 -4 10 -10 0
-5 5 -10 11 -10 5 0 7 5 4 10 -3 6 -2 10 4 10 5 0 9 -9 8 -20 -1 -12 -8 -20
-19 -20 -9 0 -19 -4 -23 -9 -3 -6 9 -7 30 -4 35 6 35 5 35 -32 0 -35 1 -37 28
-31 l27 6 -25 -14 c-23 -13 -23 -15 -7 -22 13 -5 17 -13 13 -30 -5 -18 -3 -22
9 -18 19 8 19 -3 0 -23 -13 -12 -18 -13 -31 -2 -13 10 -17 10 -23 0 -5 -7 -21
-11 -37 -9 -19 2 -36 -4 -52 -19 -23 -21 -81 -28 -97 -11 -4 4 -19 2 -33 -3
-21 -8 -29 -7 -38 6 -10 13 -16 14 -38 4 -14 -7 -24 -15 -21 -18 2 -4 -5 -12
-16 -19 -11 -7 -19 -8 -19 -2 0 5 -7 10 -15 10 -8 0 -15 -4 -15 -10 0 -5 -7
-10 -15 -10 -22 0 -18 15 8 28 21 10 21 11 2 12 -19 1 -18 2 3 10 12 5 22 15
22 21 0 8 -4 9 -13 0 -8 -6 -16 -8 -19 -5 -3 3 -21 -4 -40 -14 -23 -14 -40
-17 -51 -11 -10 6 -18 5 -22 -1 -3 -5 1 -10 9 -10 9 0 16 -2 16 -4 0 -2 3 -11
6 -20 11 -30 -30 -17 -53 17 -17 23 -23 27 -23 14 0 -10 -4 -16 -9 -12 -6 3
-14 -3 -20 -12 -8 -15 -12 -16 -23 -4 -8 9 -9 11 -1 7 7 -4 17 3 23 15 7 13 8
19 2 15 -6 -3 -13 -2 -17 4 -10 17 -25 11 -18 -7 5 -12 3 -14 -8 -8 -29 17
-40 28 -32 34 4 3 13 15 19 25 8 15 6 24 -8 38 -18 18 -44 25 -35 11 3 -5 1
-18 -4 -30 -6 -16 -13 -21 -26 -16 -15 5 -15 3 2 -10 17 -13 21 -13 28 -1 4 8
13 14 19 14 7 0 -4 -16 -23 -36 -29 -31 -31 -35 -11 -29 13 4 22 2 22 -4 0 -6
-14 -11 -31 -11 -20 0 -28 4 -23 12 4 7 3 8 -4 4 -7 -4 -12 -14 -12 -22 0 -8
5 -12 10 -9 6 3 10 -1 10 -9 0 -9 -7 -16 -16 -16 -10 0 -14 -6 -10 -15 6 -17
-2 -45 -13 -45 -4 0 -7 9 -7 20 1 10 -3 18 -9 17 -5 -1 -9 -12 -7 -24 2 -15
-3 -23 -12 -23 -8 0 -20 -8 -25 -17 -6 -10 -11 -13 -11 -6 0 6 -3 20 -6 30 -5
15 -4 15 5 3 15 -22 26 -3 15 27 -6 18 -19 29 -42 35 -17 5 -32 13 -32 18 0 5
-7 7 -15 4 -10 -4 -16 0 -17 12 0 11 -2 24 -2 31 -2 23 -14 24 -21 2 -5 -15
-3 -25 5 -27 7 -3 -5 -13 -28 -23 -22 -11 -47 -16 -56 -13 -17 7 -30 34 -15
34 6 0 7 5 4 10 -4 6 -11 7 -17 4 -6 -4 -14 0 -19 7 -6 10 -8 7 -7 -11 2 -14
10 -29 19 -35 12 -7 14 -16 8 -30 -6 -17 -8 -17 -8 -2 -1 16 -11 21 -37 18 -7
-1 -10 11 -8 29 4 35 1 36 -36 10 -24 -17 -29 -18 -40 -5 -6 8 -9 19 -5 24 3
7 0 8 -9 5 -10 -4 -17 3 -22 21 -5 19 -9 23 -15 14 -6 -10 -11 -10 -24 1 -22
19 -52 23 -61 8 -4 -7 -3 -8 4 -4 7 4 12 3 12 -2 0 -12 -76 -4 -103 10 -9 5
-22 6 -27 3 -6 -3 -10 -1 -10 4 0 6 -10 11 -22 10 -13 0 -36 2 -53 6 -16 3
-37 6 -45 8 -21 3 -133 48 -144 58 -5 5 -14 5 -20 0 -6 -5 -25 -6 -43 -4 -25
4 -32 10 -35 32 -3 23 -8 27 -53 32 -27 3 -42 7 -33 7 9 1 20 7 24 14 5 7 3 8
-5 3 -9 -5 -12 -1 -11 11 4 35 0 37 -25 14 -19 -17 -22 -26 -13 -31 10 -6 8
-12 -7 -23 -23 -17 -31 -6 -16 21 13 26 0 44 -29 38 l-25 -4 22 18 c12 10 20
21 17 24 -3 3 -1 8 5 12 11 6 15 -7 12 -32 -1 -7 3 -13 9 -13 12 0 76 59 66
61 -3 1 -10 3 -16 4 -5 1 -17 3 -25 4 -13 1 -14 5 -3 24 10 18 13 19 16 5 5
-25 43 -18 53 10 8 19 14 23 34 18 25 -6 35 8 13 18 -9 4 -8 5 2 4 23 -2 51
13 44 24 -4 7 -9 6 -13 -1 -11 -17 -51 -1 -51 20 0 13 7 19 24 19 14 0 39 12
58 27 18 15 27 20 19 10 -8 -11 -9 -17 -2 -17 6 0 17 13 26 30 18 34 18 40 5
40 -5 0 -10 -8 -10 -17 -1 -17 -1 -17 -11 0 -6 10 -8 21 -5 24 3 4 -3 13 -14
20 -16 11 -24 12 -35 3 -10 -8 -19 -9 -32 -1 -17 9 -17 10 2 11 11 0 39 1 62
0 23 0 45 5 49 11 4 8 0 9 -15 4 -25 -8 -27 2 -4 27 15 17 15 18 0 18 -10 0
-17 4 -17 8 0 14 24 32 43 32 16 0 17 -3 7 -15 -10 -12 -8 -16 12 -24 21 -8
24 -14 20 -41 -3 -18 -8 -27 -12 -21 -5 9 -10 8 -20 -4 -10 -12 -10 -15 4 -15
10 0 16 -9 17 -22 1 -17 2 -19 6 -5 2 9 9 17 14 17 5 0 9 7 9 15 0 8 7 15 15
15 8 0 15 -5 15 -12 0 -9 3 -9 11 -1 14 14 -14 48 -31 38 -7 -4 -7 3 0 20 7
17 7 24 0 20 -6 -3 -10 -1 -10 5 0 7 -7 9 -16 6 -11 -4 -15 -2 -11 8 6 15 -17
30 -53 35 -5 0 -10 8 -10 16 0 8 -5 15 -12 15 -6 0 -2 8 9 18 11 9 22 34 26
55 5 34 4 36 -14 27 -10 -6 -19 -15 -19 -21 0 -6 5 -7 12 -3 7 4 8 3 4 -5 -6
-9 -11 -9 -22 0 -11 9 -14 8 -14 -4 0 -9 -5 -19 -11 -23 -8 -4 -9 3 -4 26 9
43 -11 85 -31 65 -8 -7 -14 -17 -14 -22 0 -5 -12 -10 -26 -11 -19 -1 -25 2
-21 12 3 8 1 17 -6 20 -7 3 -2 3 11 0 12 -3 22 -1 22 5 0 6 -8 11 -17 11 -17
1 -17 1 0 11 10 6 27 9 38 6 16 -4 18 -1 13 18 -3 12 -1 26 5 29 7 4 8 1 5 -8
-3 -9 -1 -16 5 -16 6 0 11 -7 11 -14 0 -12 9 -12 56 4 54 19 57 19 83 2 26
-18 71 -19 71 -1 0 5 7 9 15 9 7 0 19 8 24 18 7 11 10 13 11 3 0 -25 45 14 45
40 0 14 7 25 17 27 13 2 16 -1 12 -12 -11 -28 23 -18 62 20 26 24 45 34 59 30
11 -2 38 -1 60 4 57 11 66 11 108 -1z m-373 -34 c0 -8 -9 -15 -20 -15 -17 0
-19 2 -8 15 17 19 28 19 28 0z m-270 -210 c0 -8 -7 -15 -15 -15 -13 0 -14 3
-3 15 16 18 18 18 18 0z m70 -35 c0 -5 -4 -10 -10 -10 -5 0 -10 5 -10 10 0 6
5 10 10 10 6 0 10 -4 10 -10z m-130 -4 c0 -3 -4 -8 -10 -11 -5 -3 -10 -1 -10
4 0 6 5 11 10 11 6 0 10 -2 10 -4z m37 -2 c-3 -3 -12 -4 -19 -1 -8 3 -5 6 6 6
11 1 17 -2 13 -5z m8 -23 c3 -5 1 -12 -5 -16 -5 -3 -10 1 -10 9 0 18 6 21 15
7z m50 -11 c3 -5 2 -10 -4 -10 -5 0 -13 5 -16 10 -3 6 -2 10 4 10 5 0 13 -4
16 -10z m1695 -10 c-8 -5 -24 -9 -35 -9 -16 1 -16 2 5 9 35 11 48 11 30 0z
m-1720 -29 c0 -5 -7 -14 -15 -21 -16 -14 -18 -10 -9 14 6 17 24 22 24 7z m26
0 c-4 -5 0 -12 6 -14 8 -3 6 -6 -4 -6 -10 -1 -18 6 -18 14 0 8 5 15 11 15 5 0
8 -4 5 -9z m-96 -27 c0 -8 -4 -12 -10 -9 -5 3 -10 10 -10 16 0 5 5 9 10 9 6 0
10 -7 10 -16z m1730 6 c0 -5 -4 -10 -10 -10 -5 0 -10 5 -10 10 0 6 5 10 10 10
6 0 10 -4 10 -10z m-1665 -139 c-3 -6 -11 -8 -17 -5 -6 4 -5 9 3 15 16 10 23
4 14 -10z m-30 -11 c3 -5 1 -10 -4 -10 -6 0 -11 5 -11 10 0 6 2 10 4 10 3 0 8
-4 11 -10z m-158 -16 c-3 -3 -12 -4 -19 -1 -8 3 -5 6 6 6 11 1 17 -2 13 -5z
m170 -36 c-3 -8 -6 -5 -6 6 -1 11 2 17 5 13 3 -3 4 -12 1 -19z m-102 -79 c-4
-6 2 -13 14 -16 24 -6 27 -16 8 -31 -10 -9 -16 -4 -24 18 -6 16 -8 31 -5 34 9
10 14 7 7 -5z m-3188 -26 c28 -79 40 -123 34 -123 -11 1 -61 77 -63 97 -5 56
13 72 29 26z m3053 -43 c0 -5 -4 -10 -10 -10 -5 0 -10 5 -10 10 0 6 5 10 10
10 6 0 10 -4 10 -10z m83 -4 c4 -9 0 -13 -11 -12 -9 2 -18 8 -20 14 -5 17 25
15 31 -2z m-43 -36 c0 -5 -4 -10 -10 -10 -5 0 -10 5 -10 10 0 6 5 10 10 10 6
0 10 -4 10 -10z m1995 0 c3 -6 -1 -7 -9 -4 -18 7 -21 14 -7 14 6 0 13 -4 16
-10z m72 -182 c-3 -8 -6 -5 -6 6 -1 11 2 17 5 13 3 -3 4 -12 1 -19z m-2008
-118 c12 17 24 8 26 -20 1 -14 -2 -17 -10 -10 -7 5 -15 7 -19 3 -7 -8 -26 15
-26 32 0 6 5 3 10 -5 9 -13 11 -13 19 0z m1491 -10 c0 -5 -4 -10 -10 -10 -5 0
-10 -7 -10 -17 0 -9 -3 -14 -6 -10 -8 8 5 47 17 47 5 0 9 -4 9 -10z m-1430
-10 c0 -5 -4 -10 -10 -10 -5 0 -10 5 -10 10 0 6 5 10 10 10 6 0 10 -4 10 -10z
m35 -10 c3 -5 1 -10 -4 -10 -6 0 -11 5 -11 10 0 6 2 10 4 10 3 0 8 -4 11 -10z
m1155 -4 c0 -2 -7 -7 -16 -10 -8 -3 -12 -2 -9 4 6 10 25 14 25 6z m115 -16 c3
-5 -1 -10 -10 -10 -9 0 -13 5 -10 10 3 6 8 10 10 10 2 0 7 -4 10 -10z m-1195
-20 c-20 -13 -33 -13 -25 0 3 6 14 10 23 10 15 0 15 -2 2 -10z m100 0 c0 -5
-4 -10 -10 -10 -5 0 -10 5 -10 10 0 6 5 10 10 10 6 0 10 -4 10 -10z m630 0 c0
-5 -5 -10 -11 -10 -5 0 -7 5 -4 10 3 6 8 10 11 10 2 0 4 -4 4 -10z m-890 -12
c0 -11 -12 -10 -30 2 -12 7 -10 9 8 7 12 0 22 -5 22 -9z m1080 -8 c0 -5 -2
-10 -4 -10 -3 0 -8 5 -11 10 -3 6 -1 10 4 10 6 0 11 -4 11 -10z m-1003 -25 c0
-8 -6 -15 -13 -15 -8 0 -11 6 -8 15 4 8 9 15 13 15 4 0 8 -7 8 -15z m1110 -12
c0 -22 -26 -55 -38 -47 -5 3 -2 12 6 20 8 9 15 22 15 30 0 20 17 17 17 -3z
m-174 -16 c3 -8 1 -20 -5 -28 -8 -11 -9 -10 -4 4 3 9 1 17 -5 17 -6 0 -7 5 -4
10 8 13 12 13 18 -3z m-57 -54 c-10 -10 -19 5 -10 18 6 11 8 11 12 0 2 -7 1
-15 -2 -18z m184 5 c0 -7 -4 -19 -9 -27 -6 -9 -8 -5 -8 13 0 14 3 26 8 26 5 0
9 -6 9 -12z m-219 -12 c-9 -10 -8 -16 4 -26 8 -7 15 -8 15 -3 0 14 59 33 66
21 4 -6 9 -6 14 2 6 10 12 9 29 -2 11 -8 18 -18 13 -23 -4 -4 3 -6 14 -3 12 3
28 2 35 -3 9 -6 10 -9 2 -9 -24 0 -5 -36 30 -55 38 -21 56 -47 38 -53 -6 -2
-11 -13 -11 -25 -1 -17 -4 -15 -15 11 -8 19 -18 32 -22 30 -5 -2 -23 -10 -40
-17 -18 -7 -33 -20 -33 -28 0 -9 6 -13 15 -9 8 3 19 -3 25 -13 8 -15 5 -20
-13 -26 l-22 -8 23 -4 c12 -2 22 -11 22 -18 0 -8 -6 -12 -14 -9 -8 3 -20 -3
-27 -14 -10 -16 -17 -18 -31 -11 -12 6 -18 6 -18 -1 0 -5 5 -10 10 -10 6 0 3
-11 -6 -25 -9 -14 -21 -25 -26 -25 -6 0 -5 6 2 15 7 8 8 15 2 15 -15 0 -23 44
-9 55 6 6 19 19 27 29 14 18 13 19 -2 13 -10 -3 -18 -2 -18 2 0 5 7 11 15 15
8 3 15 11 15 18 0 17 -41 58 -59 58 -13 1 -12 3 3 11 15 9 16 13 5 20 -8 5
-23 6 -34 3 -16 -5 -18 -4 -7 7 12 13 18 38 5 26 -3 -4 -12 -2 -20 4 -9 9 -13
8 -13 0 0 -6 -9 -11 -20 -11 -20 0 -20 1 -4 33 18 35 34 57 41 57 3 0 0 -6 -6
-14z m256 8 c-3 -3 -12 -4 -19 -1 -8 3 -5 6 6 6 11 1 17 -2 13 -5z m-1037 -52
c0 -13 -12 -22 -22 -16 -10 6 -1 24 13 24 5 0 9 -4 9 -8z m238 -75 c19 -19 32
-39 28 -45 -3 -5 -28 -18 -56 -28 -27 -10 -50 -20 -50 -23 0 -4 -18 -6 -39 -6
-22 -1 -37 3 -35 7 3 4 -2 8 -11 8 -20 0 -14 26 22 89 24 42 26 43 66 38 28
-4 51 -16 75 -40z m-398 -37 c14 -10 22 -21 19 -25 -4 -3 -20 5 -35 19 -34 30
-21 35 16 6z m1785 10 c3 -5 1 -10 -4 -10 -6 0 -11 5 -11 10 0 6 2 10 4 10 3
0 8 -4 11 -10z m-2342 -28 c-8 -5 -7 -11 4 -21 12 -11 15 -10 20 9 4 13 11 19
20 16 8 -3 18 -6 23 -6 16 0 23 -42 9 -51 -11 -7 -10 -9 4 -9 9 0 17 -5 17
-11 0 -6 -9 -9 -20 -6 -14 4 -25 -1 -33 -14 -6 -10 -18 -19 -26 -19 -11 0 -11
-3 0 -17 13 -15 12 -15 -8 -3 -12 8 -19 18 -17 22 9 15 -5 8 -23 -10 -22 -23
-53 -35 -53 -22 0 6 5 10 10 10 6 0 10 8 10 18 0 12 3 13 8 5 6 -9 12 -7 25 7
18 22 37 26 37 9 0 -5 5 -7 11 -3 8 5 8 9 -1 14 -6 4 -11 10 -11 14 3 19 0 26
-10 26 -5 0 -8 -4 -5 -9 3 -5 -1 -14 -9 -21 -11 -9 -15 -9 -15 -1 0 7 -4 9
-10 6 -20 -13 -9 14 13 30 l22 17 -25 -7 c-23 -5 -23 -5 -8 8 10 8 16 16 13
18 -2 3 6 6 18 6 12 1 17 -1 10 -5z m1205 -7 c3 -3 7 -21 7 -40 2 -25 -2 -35
-13 -35 -9 0 -13 -7 -9 -20 3 -12 0 -20 -8 -20 -12 0 -22 34 -31 101 -3 23 0
26 22 23 14 -1 29 -5 32 -9z m980 -20 c7 -14 12 -35 12 -46 0 -18 -1 -19 -25
-3 -13 8 -28 13 -34 10 -13 -8 -38 3 -45 20 -3 8 5 20 22 28 39 22 57 19 70
-9z m-462 -20 c0 -14 -5 -25 -9 -25 -5 0 -6 -4 -2 -9 3 -5 2 -12 -3 -15 -4 -2
-8 13 -9 35 -1 26 3 39 12 39 7 0 12 -10 11 -25z m-986 5 c0 -5 9 -19 19 -29
16 -16 22 -17 30 -7 13 16 68 9 92 -12 18 -16 18 -17 -3 -39 -12 -13 -27 -23
-35 -23 -7 0 -13 -7 -13 -15 0 -10 -7 -15 -17 -13 -10 2 -17 -2 -16 -9 2 -7
-3 -10 -11 -7 -8 3 -17 0 -21 -6 -4 -6 -16 -8 -26 -5 -11 4 -27 1 -35 -6 -12
-10 -13 -9 -7 7 6 17 5 17 -10 6 -22 -19 -42 -6 -22 14 8 9 19 12 25 9 5 -3
10 0 10 7 0 10 2 10 9 -1 5 -7 14 -10 20 -7 14 9 15 66 0 66 -5 0 -7 -4 -4
-10 3 -5 -3 -10 -14 -10 -14 0 -21 6 -21 20 0 11 -7 20 -15 20 -8 0 -15 -5
-15 -12 0 -6 -3 -8 -7 -5 -3 4 9 22 28 41 34 34 59 45 59 26z m1246 -22 c-3
-13 -6 -28 -6 -35 0 -7 -9 -17 -20 -23 -19 -10 -20 -8 -18 22 2 38 14 58 35
58 11 0 14 -7 9 -22z m544 0 c25 -27 26 -48 1 -48 -11 0 -23 -4 -26 -10 -3 -5
-28 -10 -55 -10 l-49 0 42 45 c48 51 58 53 87 23z m-1598 -30 c-9 -9 -12 -9
-12 1 0 7 -6 11 -14 8 -22 -9 -28 5 -8 19 14 11 20 10 32 -2 11 -11 12 -16 2
-26z m177 0 c1 7 6 10 13 6 8 -5 4 -13 -11 -26 -28 -22 -37 -23 -45 -2 -4 10
1 22 11 30 15 10 19 10 25 -4 4 -10 7 -12 7 -4z m-974 2 c3 -5 1 -10 -4 -10
-6 0 -11 5 -11 10 0 6 2 10 4 10 3 0 8 -4 11 -10z m-21 -35 c-6 -16 -24 -21
-24 -7 0 11 11 22 21 22 5 0 6 -7 3 -15z m56 -7 c0 -13 -23 -5 -28 10 -2 7 2
10 12 6 9 -3 16 -11 16 -16z m1887 -2 c-2 -6 -12 -11 -22 -11 -10 0 -20 5 -22
11 -2 7 7 12 22 12 15 0 24 -5 22 -12z m41 2 c-6 -18 -28 -21 -28 -4 0 9 7 16
16 16 9 0 14 -5 12 -12z m120 -4 c6 3 15 -1 20 -11 9 -15 12 -15 27 -3 14 12
18 12 26 -1 14 -23 -20 -41 -64 -34 -24 5 -43 2 -53 -5 -8 -7 -17 -10 -21 -6
-3 3 -1 6 5 6 7 0 12 5 12 11 0 6 -8 8 -19 4 -25 -8 -36 11 -18 29 17 17 60
25 68 12 4 -5 11 -6 17 -2z m-558 -64 c0 -5 -7 -7 -15 -4 -8 4 -15 8 -15 10 0
2 7 4 15 4 8 0 15 -4 15 -10z m400 -6 c0 -8 -4 -12 -10 -9 -5 3 -10 10 -10 16
0 5 5 9 10 9 6 0 10 -7 10 -16z m160 2 c0 -3 -4 -8 -10 -11 -5 -3 -10 -1 -10
4 0 6 5 11 10 11 6 0 10 -2 10 -4z m-1510 -35 c0 -6 -4 -13 -10 -16 -5 -3 -10
1 -10 9 0 9 5 16 10 16 6 0 10 -4 10 -9z m73 -28 c-3 -7 -9 -13 -14 -13 -5 0
-9 6 -9 13 0 8 6 14 14 14 8 0 12 -6 9 -14z m-73 -23 c0 -5 -7 -10 -16 -10 -8
0 -12 5 -9 10 3 6 10 10 16 10 5 0 9 -4 9 -10z m-90 -21 c0 -5 -7 -9 -15 -9
-15 0 -20 12 -9 23 8 8 24 -1 24 -14z m163 5 c-4 -10 1 -17 16 -21 11 -3 21
-9 21 -14 0 -5 -6 -6 -13 -3 -8 3 -20 -2 -27 -11 -15 -18 -40 -20 -40 -2 -1 7
-6 5 -14 -5 -14 -19 -46 -24 -46 -8 0 6 4 10 9 10 5 0 23 13 40 29 26 25 39
33 58 40 1 1 0 -6 -4 -15z m292 6 c-3 -5 1 -10 10 -10 11 0 14 -6 9 -25 -4
-17 -2 -25 6 -25 16 0 -7 -30 -24 -30 -6 0 -20 -13 -30 -27 -16 -21 -17 -25
-4 -20 22 8 29 -2 18 -23 -7 -13 -5 -21 5 -30 8 -7 15 -18 15 -24 0 -6 14 -19
31 -29 28 -16 30 -19 17 -35 -7 -9 -20 -30 -28 -47 -8 -16 -20 -35 -25 -41 -6
-6 -17 -31 -25 -55 -18 -56 -16 -55 -40 -34 -24 22 -39 13 -16 -10 18 -18 22
-55 5 -55 -6 0 -8 9 -4 20 4 11 2 20 -4 20 -6 0 -11 -8 -11 -17 0 -9 -3 -13
-7 -10 -3 4 -14 0 -23 -8 -9 -8 -32 -16 -51 -17 -25 -2 -35 -8 -35 -20 0 -9 4
-14 8 -12 7 5 12 -13 11 -43 -1 -7 3 -10 8 -8 5 3 6 19 2 35 -5 29 -4 30 30
30 27 0 34 -4 33 -17 -2 -27 27 -21 35 7 4 14 8 21 8 15 1 -5 4 -21 8 -34 4
-16 3 -22 -5 -17 -6 3 -13 -3 -17 -14 -3 -11 -12 -20 -18 -20 -6 0 -1 -7 11
-16 13 -9 30 -13 38 -10 12 4 14 1 9 -14 -4 -13 -1 -22 9 -26 11 -4 16 -19 16
-50 0 -40 -2 -44 -24 -44 -14 0 -28 -5 -31 -11 -11 -17 3 -23 20 -9 10 8 15 9
15 1 0 -6 -9 -16 -20 -23 -11 -7 -20 -18 -20 -25 0 -18 -50 3 -68 28 -8 11
-20 18 -29 15 -10 -4 -13 -1 -8 13 4 13 0 23 -12 30 -17 9 -17 11 4 26 25 17
26 56 2 63 -11 3 -11 2 -1 -6 10 -7 10 -11 -3 -22 -13 -11 -15 -9 -15 15 0 18
6 28 20 32 21 6 28 22 10 24 -44 6 -45 5 -42 -35 3 -33 1 -38 -13 -32 -13 5
-15 1 -10 -17 5 -19 4 -20 -5 -4 -6 9 -19 17 -28 17 -14 0 -15 -2 -3 -9 12 -8
12 -12 2 -24 -10 -13 -9 -16 6 -21 23 -7 45 -80 29 -96 -15 -15 -26 -12 -27 8
0 11 -2 12 -6 4 -3 -7 0 -19 7 -27 9 -11 6 -20 -14 -41 -23 -26 -25 -26 -19
-6 3 12 1 22 -5 22 -6 0 -13 -10 -15 -22 -3 -17 -5 -14 -6 10 0 17 4 32 9 32
6 0 10 7 10 15 0 18 -11 19 -29 3 -11 -11 -13 -10 -7 5 4 13 2 17 -6 15 -7 -3
-14 -15 -14 -27 -2 -29 -11 -36 -28 -22 -17 15 -15 103 3 125 7 8 10 19 7 24
-3 5 1 18 9 28 16 21 20 38 7 30 -11 -6 -24 4 -39 31 -8 14 -9 24 -3 28 18 11
-1 26 -23 20 -18 -5 -19 -4 -6 4 12 8 27 7 51 -4 36 -15 58 -6 58 22 0 21 -18
15 -22 -8 l-3 -21 -23 20 c-14 12 -19 23 -12 27 5 3 10 1 10 -4 0 -7 7 -7 20
1 24 15 26 28 5 28 -18 0 -20 16 -3 26 7 4 8 3 4 -4 -4 -7 -1 -12 9 -12 20 0
75 31 75 42 0 17 21 7 29 -14 8 -21 10 -21 16 -5 8 20 -22 50 -40 40 -5 -4 1
6 15 22 l25 27 -24 -7 c-17 -5 -22 -4 -19 6 3 8 12 13 22 11 11 -2 16 4 16 23
0 14 5 25 10 25 6 0 10 7 10 15 0 9 10 19 22 24 12 4 17 10 11 14 -6 4 -16 0
-23 -8 -7 -8 -18 -15 -25 -15 -17 0 -26 63 -10 72 7 4 11 21 9 38 -4 33 3 38
20 15 10 -13 13 -13 24 5 10 17 10 20 -4 20 -8 0 -12 5 -9 10 4 6 11 8 16 5 5
-4 9 -2 9 4 0 5 -4 13 -10 16 -24 15 -7 26 36 24 37 -2 45 -6 41 -20 -4 -14
-1 -15 26 -5 26 10 27 11 8 14 -25 4 -27 17 -4 26 9 4 20 1 25 -6 4 -7 5 2 1
22 -3 19 -11 38 -16 41 -11 8 31 24 51 21 6 -2 12 2 12 8 0 5 -5 10 -11 10 -5
0 -7 5 -4 10 3 6 11 10 16 10 6 0 7 -4 4 -10z m-407 -28 c5 -31 -15 -27 -21 3
-3 16 0 24 7 22 6 -2 12 -13 14 -25z m-110 -17 c-3 -3 -9 2 -12 12 -6 14 -5
15 5 6 7 -7 10 -15 7 -18z m429 -7 c-3 -8 -6 -5 -6 6 -1 11 2 17 5 13 3 -3 4
-12 1 -19z m-1884 -28 c-4 -16 -8 -18 -19 -9 -20 16 -17 29 5 29 14 0 18 -5
14 -20z m1567 1 c0 -6 -4 -13 -10 -16 -5 -3 -10 1 -10 9 0 9 5 16 10 16 6 0
10 -4 10 -9z m430 -51 c0 -5 -4 -10 -10 -10 -5 0 -10 5 -10 10 0 6 5 10 10 10
6 0 10 -4 10 -10z m-230 -15 c0 -8 -4 -15 -10 -15 -5 0 -10 7 -10 15 0 8 5 15
10 15 6 0 10 -7 10 -15z m260 -19 c0 -2 -7 -7 -16 -10 -8 -3 -12 -2 -9 4 6 10
25 14 25 6z m-1902 -72 c2 -19 -7 -50 -22 -79 -25 -47 -26 -47 -26 -17 0 17
-4 34 -10 37 -16 10 -12 55 5 55 9 0 15 9 15 21 0 35 34 19 38 -17z m1566 12
c-3 -9 2 -16 13 -18 14 -3 11 -7 -14 -18 -21 -10 -31 -21 -30 -33 1 -11 -9
-25 -23 -34 -20 -12 -22 -12 -7 0 9 8 17 21 17 30 0 25 11 47 21 41 5 -3 6 2
2 11 -3 10 0 21 8 26 19 12 19 11 13 -5z m350 -1 c3 -9 0 -15 -9 -15 -8 0 -15
7 -15 15 0 8 4 15 9 15 5 0 11 -7 15 -15z m-724 -46 c0 -6 -4 -7 -10 -4 -5 3
-10 11 -10 16 0 6 5 7 10 4 6 -3 10 -11 10 -16z m114 6 c-4 -9 -18 -15 -38
-14 l-31 0 35 13 c19 8 36 14 37 15 1 0 0 -6 -3 -14z m79 -8 c4 3 7 1 7 -5 0
-7 -11 -12 -25 -12 -18 0 -23 4 -19 15 5 11 10 13 19 5 6 -5 15 -7 18 -3z m87
3 c0 -5 -4 -10 -10 -10 -5 0 -10 5 -10 10 0 6 5 10 10 10 6 0 10 -4 10 -10z
m30 -30 c0 -5 -2 -10 -4 -10 -3 0 -8 5 -11 10 -3 6 -1 10 4 10 6 0 11 -4 11
-10z m1060 -35 c0 -8 6 -15 14 -15 8 0 18 -5 22 -12 5 -8 2 -9 -10 -5 -10 4
-26 2 -37 -3 -16 -9 -19 -7 -19 13 0 13 3 27 7 30 11 12 23 8 23 -8z m-1080 1
c0 -2 -7 -6 -15 -10 -8 -3 -15 -1 -15 4 0 6 7 10 15 10 8 0 15 -2 15 -4z m963
-23 c-7 -2 -13 -11 -13 -19 0 -10 15 -14 59 -14 33 0 63 5 66 10 10 16 25 12
25 -6 0 -11 5 -14 16 -10 25 10 44 -22 32 -53 -6 -17 -6 -27 1 -29 19 -6 13
-43 -6 -40 -14 2 -17 -3 -15 -19 2 -13 -2 -23 -9 -23 -7 0 -9 -10 -6 -30 7
-32 -7 -48 -27 -31 -10 9 -15 8 -20 -4 -3 -9 -10 -13 -16 -10 -5 3 -10 1 -10
-6 0 -9 -3 -9 -14 1 -8 6 -12 18 -9 26 3 8 0 14 -7 14 -6 0 -8 4 -5 10 3 6 -1
7 -9 4 -9 -3 -16 -1 -16 5 0 6 5 11 10 11 6 0 10 7 10 15 0 8 -4 15 -9 15 -5
0 -11 -7 -15 -15 -6 -16 -36 -21 -36 -6 0 5 -9 12 -20 16 -17 5 -19 13 -14 58
4 47 18 72 35 62 3 -3 3 13 -1 35 -7 36 -5 40 14 39 11 0 15 -3 9 -6z m-68
-33 c3 -5 1 -10 -4 -10 -6 0 -11 5 -11 10 0 6 2 10 4 10 3 0 8 -4 11 -10z
m545 -25 c7 -9 10 -18 7 -21 -10 -11 -37 5 -37 21 0 19 14 19 30 0z m10 -44
c0 -5 -6 -14 -14 -20 -10 -9 -15 -8 -19 3 -3 8 -1 17 6 20 19 7 27 7 27 -3z
m-853 -75 c-1 -23 -5 -32 -14 -29 -15 6 -15 9 -7 41 9 33 22 26 21 -12z m20 0
c-4 -9 1 -17 11 -19 16 -4 16 -5 0 -6 -19 -1 -32 14 -23 29 9 15 18 12 12 -4z
m40 -18 c-3 -8 -6 -5 -6 6 -1 11 2 17 5 13 3 -3 4 -12 1 -19z m-2143 -69 c-3
-5 2 -9 10 -9 15 0 24 -21 27 -65 3 -40 -1 -45 -35 -45 -25 0 -44 9 -70 34
-20 18 -36 38 -36 44 0 15 52 62 69 62 11 0 11 3 0 18 -7 9 -1 6 13 -7 15 -13
25 -28 22 -32z m1356 21 c0 -5 8 -10 17 -10 9 0 14 -3 10 -6 -8 -8 -47 5 -47
17 0 5 5 9 10 9 6 0 10 -4 10 -10z m1700 -9 c0 -6 -4 -13 -10 -16 -5 -3 -10 1
-10 9 0 9 5 16 10 16 6 0 10 -4 10 -9z m-1260 -25 c0 -3 -4 -8 -10 -11 -5 -3
-10 -1 -10 4 0 6 5 11 10 11 6 0 10 -2 10 -4z m-350 -122 c0 -6 -17 -11 -40
-11 -44 0 -51 10 -20 27 11 6 20 7 20 3 0 -4 5 -2 12 5 13 13 28 0 28 -24z
m636 23 c8 3 14 1 14 -5 0 -12 -24 -22 -51 -22 -22 0 -24 11 -7 28 7 7 16 8
21 3 5 -5 16 -7 23 -4z m47 -39 c3 -12 2 -29 -3 -37 -7 -12 -9 -13 -10 -2 0 8
-7 19 -17 26 -9 7 -13 17 -9 23 12 19 33 14 39 -10z m607 -4 c0 -2 -9 -4 -21
-4 -11 0 -18 4 -14 10 5 8 35 3 35 -6z m276 -13 c1 -6 0 -7 -3 -1 -2 5 -11 10
-18 10 -8 0 -17 4 -20 10 -4 6 2 7 16 1 13 -4 24 -13 25 -20z m-828 -26 c-3
-3 -12 -3 -21 1 -14 5 -15 10 -5 27 l11 22 10 -23 c6 -12 8 -25 5 -27z m-813
16 c-3 -6 -14 -11 -23 -11 -13 0 -13 2 4 14 21 15 30 14 19 -3z m902 -13 c1
-18 -1 -25 -4 -15 -2 9 -8 15 -13 12 -6 -4 -7 12 -1 33 1 1 5 2 9 2 4 0 8 -15
9 -32z m-880 -10 c-3 -8 -6 -5 -6 6 -1 11 2 17 5 13 3 -3 4 -12 1 -19z m500
-10 c-3 -7 -5 -2 -5 12 0 14 2 19 5 13 2 -7 2 -19 0 -25z m510 15 c2 -6 -3
-18 -12 -26 -9 -9 -16 -19 -15 -22 0 -3 -3 -4 -7 -2 -5 1 -7 8 -7 15 2 11 -15
16 -43 13 -6 -1 -11 6 -10 16 1 14 10 18 46 18 24 -1 46 -6 48 -12z m593 7 c0
-5 -4 -10 -10 -10 -5 0 -10 5 -10 10 0 6 5 10 10 10 6 0 10 -4 10 -10z m-1074
-55 c-6 -24 -26 -35 -26 -15 0 6 5 10 10 10 6 0 10 12 11 28 0 15 3 21 6 14 3
-7 2 -24 -1 -37z m594 37 c0 -13 -12 -22 -22 -16 -10 6 -1 24 13 24 5 0 9 -4
9 -8z m-77 -31 c3 -15 -2 -20 -22 -24 -35 -7 -40 1 -14 23 12 9 19 21 15 25
-4 5 -2 5 4 2 7 -4 14 -15 17 -26z m-693 -22 c0 -4 -7 -6 -15 -3 -8 4 -15 10
-15 15 0 4 7 6 15 3 8 -4 15 -10 15 -15z m-473 -26 c-3 -10 -5 -4 -5 12 0 17
2 24 5 18 2 -7 2 -21 0 -30z m517 12 c-4 -8 -10 -13 -15 -10 -4 3 -6 12 -3 20
4 8 10 13 15 10 4 -3 6 -12 3 -20z m-382 -14 c3 -19 0 -27 -7 -24 -7 2 -10 15
-7 29 6 31 9 30 14 -5z m-38 -16 c-4 -8 -11 -12 -16 -9 -6 4 -5 10 3 15 19 12
19 11 13 -6z m116 5 c0 -5 -5 -10 -11 -10 -5 0 -7 5 -4 10 3 6 8 10 11 10 2 0
4 -4 4 -10z m173 -17 c-21 -8 -15 -22 7 -16 14 4 20 0 20 -12 0 -12 -6 -15
-22 -11 -13 3 -17 3 -10 0 18 -8 15 -20 -5 -21 -13 -1 -18 6 -18 25 0 26 24
57 35 45 3 -3 -1 -8 -7 -10z m108 8 c-8 -5 -11 -17 -7 -28 4 -13 2 -20 -8 -20
-8 0 -12 6 -10 14 2 7 6 20 9 28 2 8 10 15 17 15 10 0 10 -2 -1 -9z m-254 -27
c-3 -3 -12 -4 -19 -1 -8 3 -5 6 6 6 11 1 17 -2 13 -5z m698 -458 c22 -1 46 -5
53 -10 15 -9 175 -12 189 -3 5 3 22 -1 37 -8 16 -8 31 -13 35 -11 11 6 51 -13
51 -25 0 -7 -10 -9 -27 -5 -16 4 -32 7 -38 7 -32 0 -158 -11 -164 -15 -4 -3
-19 1 -33 8 -16 8 -31 10 -39 5 -8 -5 -30 -6 -49 -2 -19 3 -66 7 -105 7 -65 1
-70 3 -73 24 -4 29 30 44 83 35 22 -3 58 -7 80 -7z m-1989 -36 c8 0 11 -6 7
-17 -4 -11 -3 -14 5 -9 6 4 19 -2 29 -13 9 -11 20 -18 25 -15 4 3 8 0 8 -5 0
-6 -7 -11 -16 -11 -9 0 -14 -6 -11 -12 2 -7 11 -12 21 -10 9 2 16 -2 16 -8 0
-11 -1 -11 -47 -15 -18 -1 -30 2 -27 6 3 5 -1 9 -8 9 -8 0 -21 9 -30 19 -15
17 -15 20 1 35 10 11 12 19 6 24 -6 4 -11 21 -12 37 -2 28 -1 29 9 8 6 -13 17
-23 24 -23z m69 30 c3 -5 2 -10 -4 -10 -5 0 -13 5 -16 10 -3 6 -2 10 4 10 5 0
13 -4 16 -10z m1725 -25 c0 -10 -10 -15 -30 -15 -29 0 -38 9 -23 23 13 13 53
7 53 -8z m-1675 -85 c3 -5 1 -10 -4 -10 -6 0 -11 5 -11 10 0 6 2 10 4 10 3 0
8 -4 11 -10z m60 -48 c-3 -3 -11 0 -18 7 -9 10 -8 11 6 5 10 -3 15 -9 12 -12z
m-109 -22 c8 0 14 -4 14 -10 0 -5 -7 -10 -17 -10 -15 0 -15 -2 1 -19 12 -13
15 -27 11 -40 -8 -27 -25 -18 -18 9 4 14 0 20 -11 20 -9 0 -13 6 -10 14 3 8 1
17 -5 21 -17 10 -13 28 5 21 9 -3 22 -6 30 -6z m64 -11 c0 -5 -4 -9 -10 -9 -5
0 -10 7 -10 16 0 8 5 12 10 9 6 -3 10 -10 10 -16z m30 -64 c-6 -17 -6 -25 1
-25 6 0 4 -7 -5 -15 -8 -8 -17 -15 -19 -15 -9 0 -2 75 8 82 17 12 24 -2 15
-27z m2110 -25 c0 -5 -4 -10 -10 -10 -5 0 -10 5 -10 10 0 6 5 10 10 10 6 0 10
-4 10 -10z m-130 -64 c-8 -8 -9 -4 -6 14 2 14 6 32 7 40 1 8 4 2 6 -14 3 -16
0 -33 -7 -40z m-184 17 c-11 -11 -19 6 -11 24 8 17 8 17 12 0 3 -10 2 -21 -1
-24z m288 12 c3 -8 1 -15 -4 -15 -6 0 -10 7 -10 15 0 8 2 15 4 15 2 0 6 -7 10
-15z m-894 -5 c0 -5 -2 -10 -4 -10 -3 0 -8 5 -11 10 -3 6 -1 10 4 10 6 0 11
-4 11 -10z m692 -12 c-7 -7 -12 -8 -12 -2 0 14 12 26 19 19 2 -3 -1 -11 -7
-17z m58 0 c0 -19 -2 -20 -10 -8 -5 8 -10 11 -10 7 0 -5 -5 -5 -10 -2 -13 8
-3 25 16 25 8 0 14 -10 14 -22z m120 18 c0 -2 -7 -6 -15 -10 -8 -3 -15 -1 -15
4 0 6 7 10 15 10 8 0 15 -2 15 -4z m-205 -16 c-3 -5 -11 -10 -16 -10 -6 0 -7
5 -4 10 3 6 11 10 16 10 6 0 7 -4 4 -10z m-1855 -34 c0 -3 -4 -8 -10 -11 -5
-3 -10 -1 -10 4 0 6 5 11 10 11 6 0 10 -2 10 -4z m1270 -16 c0 -5 -5 -10 -11
-10 -5 0 -7 5 -4 10 3 6 8 10 11 10 2 0 4 -4 4 -10z m-120 -36 c0 -8 -4 -12
-10 -9 -5 3 -10 10 -10 16 0 5 5 9 10 9 6 0 10 -7 10 -16z m70 7 c0 -19 -12
-41 -20 -36 -10 6 -1 45 11 45 5 0 9 -4 9 -9z m7 -53 c-3 -8 -6 -5 -6 6 -1 11
2 17 5 13 3 -3 4 -12 1 -19z m343 -44 c0 -3 -5 -15 -11 -26 -9 -17 -9 -20 3
-15 11 4 14 -1 11 -17 -3 -16 1 -25 13 -30 21 -8 33 2 16 13 -10 6 -9 11 3 21
12 10 13 15 3 21 -7 4 -9 12 -4 16 5 4 11 2 13 -4 8 -22 25 -14 18 7 -4 11 -2
20 4 20 19 0 12 -39 -9 -52 -24 -15 -25 -24 -6 -31 10 -4 13 -1 10 7 -3 8 5
16 18 21 29 9 62 6 66 -6 2 -5 10 -9 18 -9 9 0 12 -5 8 -12 -5 -8 -2 -9 11 -4
20 7 55 -18 55 -41 0 -7 7 -13 15 -13 7 0 18 -7 23 -16 8 -15 11 -14 28 4 19
21 54 16 40 -6 -3 -5 1 -16 10 -23 13 -10 17 -10 24 0 5 9 21 12 43 9 21 -2
35 0 34 7 -1 5 8 9 21 8 13 -2 21 1 18 6 -3 4 6 7 19 5 14 -1 27 2 31 7 10 16
34 10 60 -16 15 -15 31 -22 42 -18 13 5 14 3 5 -7 -6 -7 -9 -20 -6 -29 5 -14
4 -14 -12 1 -17 16 -19 16 -31 0 -19 -26 -40 -2 -24 28 8 15 8 20 1 16 -6 -4
-11 0 -11 11 0 15 -2 16 -10 3 -6 -9 -5 -17 3 -22 8 -5 4 -8 -11 -8 -20 0 -21
-2 -10 -20 7 -11 21 -23 30 -26 30 -9 20 -23 -12 -19 -17 2 -41 0 -53 -5 -25
-10 -14 -12 51 -12 23 1 42 -2 42 -6 -1 -12 -30 -47 -30 -36 0 15 -48 35 -55
24 -3 -6 5 -15 19 -22 19 -8 23 -14 15 -24 -7 -8 -7 -14 1 -19 13 -8 13 -45
-1 -45 -6 0 -9 7 -6 14 4 9 -2 18 -15 22 -21 6 -21 7 -3 20 10 8 15 17 12 21
-4 3 -13 -1 -20 -10 -7 -10 -23 -16 -42 -14 -30 3 -55 -12 -55 -33 0 -6 4 -9
9 -6 4 3 16 0 26 -8 15 -11 16 -15 4 -34 -8 -12 -17 -22 -21 -22 -5 0 -8 -5
-8 -11 0 -5 4 -7 10 -4 6 3 7 -1 4 -9 -4 -11 0 -16 10 -16 9 0 16 -4 16 -10 0
-5 -7 -10 -15 -10 -8 0 -15 4 -15 9 0 5 -7 17 -16 26 -17 17 -12 71 6 60 6 -3
10 -1 10 5 0 6 -8 10 -17 8 -23 -4 -45 -48 -32 -64 7 -8 5 -11 -7 -10 -11 0
-20 -9 -25 -24 -4 -14 -7 -19 -8 -12 -1 7 -12 11 -29 10 -15 -1 -34 2 -41 7
-10 5 -12 4 -7 -4 10 -16 -52 -40 -96 -37 -31 3 -35 1 -31 -18 3 -17 2 -17 -7
3 -6 14 -7 27 -3 30 11 8 9 32 -3 55 -8 12 -14 15 -18 7 -4 -6 -18 -11 -32
-11 -21 0 -23 -4 -18 -24 6 -27 -20 -45 -30 -20 -3 9 -11 12 -17 8 -8 -4 -9
-3 -5 4 4 6 13 9 21 5 8 -3 15 0 15 6 0 6 -3 11 -7 11 -5 0 -9 12 -9 26 -2 29
-15 45 -21 27 -3 -7 -9 -13 -15 -13 -7 0 -7 5 1 13 8 10 7 19 -4 33 -14 18
-14 18 -15 -6 -1 -22 -2 -23 -13 -9 -13 18 -107 24 -107 8 0 -6 -5 -7 -10 -4
-16 10 8 45 31 45 17 0 18 3 8 22 -12 22 -12 22 -19 3 -7 -19 -7 -19 -18 2
-17 31 -15 36 13 31 17 -4 25 -1 25 8 0 8 7 14 16 14 12 0 10 7 -10 31 -32 37
-32 44 -4 46 13 1 18 -1 11 -5 -7 -5 -9 -13 -3 -22 6 -10 12 -11 22 -3 7 6 22
13 33 16 18 4 18 5 -3 6 -20 1 -22 5 -17 33 7 37 16 49 22 31 8 -23 23 -13 19
12 -3 14 0 25 5 25 6 0 9 10 7 23 -2 12 -9 21 -17 19 -7 -1 -10 3 -7 10 3 7 9
21 12 31 6 16 24 25 24 11z m-203 -50 c-3 -3 -12 -4 -19 -1 -8 3 -5 6 6 6 11
1 17 -2 13 -5z m628 -24 c-19 -8 -18 -9 4 -9 24 -1 24 -1 5 -15 -10 -8 -20
-11 -22 -6 -2 5 -11 6 -20 3 -15 -6 -14 -3 2 15 11 12 26 22 35 21 12 0 11 -3
-4 -9z m155 6 c0 -3 -4 -8 -10 -11 -5 -3 -10 -1 -10 4 0 6 5 11 10 11 6 0 10
-2 10 -4z m-310 -16 c0 -5 -4 -10 -10 -10 -5 0 -10 5 -10 10 0 6 5 10 10 10 6
0 10 -4 10 -10z m197 -37 c-3 -10 -5 -2 -5 17 0 19 2 27 5 18 2 -10 2 -26 0
-35z m73 32 c0 -2 -7 -11 -16 -20 -14 -13 -19 -14 -25 -3 -13 20 -11 23 16 24
14 1 25 0 25 -1z m-670 -15 c0 -5 -5 -10 -11 -10 -5 0 -7 5 -4 10 3 6 8 10 11
10 2 0 4 -4 4 -10z m-93 -6 c-3 -3 -12 -4 -19 -1 -8 3 -5 6 6 6 11 1 17 -2 13
-5z m133 -19 c-7 -8 -10 -22 -6 -30 3 -9 2 -13 -4 -10 -14 9 -12 53 3 58 18 6
21 -1 7 -18z m535 -4 c-7 -22 -35 -29 -35 -10 0 12 32 40 38 34 2 -2 1 -13 -3
-24z m-579 -16 c-1 -29 -3 -30 -22 -10 -17 16 -11 35 11 35 7 0 12 -10 11 -25z
m501 -7 c-3 -7 -5 -2 -5 12 0 14 2 19 5 13 2 -7 2 -19 0 -25z m-567 -84 c0
-14 -4 -23 -9 -20 -5 3 -7 15 -4 26 7 28 13 25 13 -6z m70 11 c20 -24 6 -28
-15 -5 -10 11 -13 20 -8 20 6 0 16 -7 23 -15z m7 -41 c-3 -3 -12 -4 -19 -1 -8
3 -5 6 6 6 11 1 17 -2 13 -5z m740 -36 c-8 -24 -12 -28 -15 -15 -2 10 2 24 8
32 19 22 20 18 7 -17z m63 12 c0 -5 -2 -10 -4 -10 -3 0 -8 5 -11 10 -3 6 -1
10 4 10 6 0 11 -4 11 -10z m-35 -20 c3 -5 1 -10 -4 -10 -6 0 -11 5 -11 10 0 6
2 10 4 10 3 0 8 -4 11 -10z m15 -43 c0 -2 -9 -3 -20 -3 -11 0 -20 6 -20 13 0
11 5 11 20 3 11 -6 20 -12 20 -13z m-130 -39 c0 -12 4 -17 12 -12 8 5 9 2 5
-10 -4 -10 -7 -25 -8 -34 0 -12 -3 -10 -9 6 -10 22 -30 31 -30 11 0 -5 5 -7
10 -4 6 3 10 0 10 -9 0 -12 -5 -12 -30 -3 -16 6 -30 18 -30 25 0 12 3 12 17 1
9 -8 14 -9 10 -3 -4 7 2 14 13 17 24 6 27 37 4 37 -8 0 -12 5 -9 10 10 16 35
-8 35 -32z m-710 5 c0 -21 -3 -24 -9 -14 -5 8 -7 20 -4 28 8 21 13 15 13 -14z
m140 -22 c0 -6 -4 -13 -10 -16 -5 -3 -10 1 -10 9 0 9 5 16 10 16 6 0 10 -4 10
-9z m-103 -33 c-3 -8 -6 -5 -6 6 -1 11 2 17 5 13 3 -3 4 -12 1 -19z m774 -5
c-12 -20 -14 -14 -5 12 4 9 9 14 11 11 3 -2 0 -13 -6 -23z m-691 -5 c0 -5 -6
-8 -14 -8 -8 0 -21 -3 -30 -6 -10 -4 -16 -1 -16 8 0 9 11 14 30 13 17 0 30 -3
30 -7z m180 -21 c0 -8 -8 -21 -18 -30 -18 -16 -18 -15 -14 13 4 29 32 44 32
17z m220 -42 c0 -8 -4 -15 -9 -15 -5 0 -11 -8 -13 -17 -3 -15 -5 -14 -10 5 -3
12 -2 20 3 16 5 -3 9 2 9 10 0 9 5 16 10 16 6 0 10 -7 10 -15z m200 -15 c-8
-5 -17 -7 -19 -4 -3 3 1 9 9 14 8 5 17 7 19 4 3 -3 -1 -9 -9 -14z m-356 -5
c-4 -8 -10 -12 -15 -9 -11 6 -2 24 11 24 5 0 7 -7 4 -15z m259 0 c-3 -9 -8
-14 -10 -11 -3 3 -2 9 2 15 9 16 15 13 8 -4z m-313 -4 c0 -19 -22 -23 -38 -7
-15 15 -14 16 11 16 15 0 27 -4 27 -9z m148 -9 c3 -9 -3 -13 -19 -10 -12 1
-24 9 -27 16 -3 9 3 13 19 10 12 -1 24 -9 27 -16z m-1618 -2 c0 -5 -4 -10 -10
-10 -5 0 -10 5 -10 10 0 6 5 10 10 10 6 0 10 -4 10 -10z m1720 -5 c0 -2 -7 -5
-15 -9 -9 -3 -15 0 -15 9 0 9 6 12 15 9 8 -4 15 -7 15 -9z m-160 1 c0 -11 -19
-15 -25 -6 -3 5 1 10 9 10 9 0 16 -2 16 -4z m-1446 -72 c33 9 81 -25 71 -51
-2 -7 1 -15 7 -19 6 -4 8 -3 4 4 -12 20 11 21 32 2 14 -13 19 -26 14 -38 -6
-16 -7 -16 -10 1 -5 24 -12 21 -52 -18 -19 -19 -39 -35 -45 -35 -5 0 -3 5 5
10 10 6 11 10 3 10 -7 0 -13 7 -13 16 0 9 5 12 13 8 9 -5 9 -4 0 6 -6 7 -9 18
-7 25 3 7 -5 15 -19 19 -13 3 -29 17 -35 31 -7 14 -17 22 -25 19 -10 -3 -14 4
-15 24 l-1 30 27 -25 c16 -15 34 -22 46 -19z m-8 -73 c-4 -5 0 -11 6 -14 7 -2
9 -8 5 -13 -4 -5 -12 -2 -17 6 -13 20 -12 30 1 30 5 0 8 -4 5 -9z m129 -51
c12 -5 14 -9 6 -9 -11 -1 -10 -4 3 -14 16 -12 17 -15 3 -20 -9 -3 -18 0 -21 9
-7 19 -24 18 -29 -3 -3 -12 -5 -9 -6 8 -2 39 8 45 44 29z m-51 -75 c-4 -8 -10
-15 -15 -15 -4 0 -6 7 -3 15 4 8 10 15 15 15 4 0 6 -7 3 -15z m256 -5 c0 -5
-2 -10 -4 -10 -3 0 -8 5 -11 10 -3 6 -1 10 4 10 6 0 11 -4 11 -10z m-120 -10
c13 -9 13 -10 0 -10 -8 0 -22 5 -30 10 -13 9 -13 10 0 10 8 0 22 -5 30 -10z
m80 -10 c0 -5 -2 -10 -4 -10 -3 0 -8 5 -11 10 -3 6 -1 10 4 10 6 0 11 -4 11
-10z m-390 -370 c0 -5 -5 -10 -11 -10 -5 0 -7 5 -4 10 3 6 8 10 11 10 2 0 4
-4 4 -10z m-190 -143 c11 -5 9 -6 -4 -4 -11 1 -21 9 -23 17 -3 10 -2 11 4 4 4
-6 15 -14 23 -17z m70 13 c0 -5 -7 -10 -16 -10 -8 0 -12 5 -9 10 3 6 10 10 16
10 5 0 9 -4 9 -10z m25 -60 c4 -6 10 -8 15 -5 8 5 24 -25 17 -32 -8 -8 -37 10
-37 22 0 7 -6 16 -12 18 -10 4 -10 6 -1 6 6 1 15 -4 18 -9z m425 -10 c0 -19
-18 -19 -23 -1 -3 14 -1 18 9 14 8 -3 14 -9 14 -13z m-150 0 c0 -5 -4 -10 -10
-10 -5 0 -10 5 -10 10 0 6 5 10 10 10 6 0 10 -4 10 -10z m-480 -4 c0 -2 -7 -7
-16 -10 -8 -3 -12 -2 -9 4 6 10 25 14 25 6z m284 -32 c3 -7 -2 -10 -15 -7 -22
6 -26 20 -4 20 8 0 16 -6 19 -13z m-39 -52 c-6 -6 -35 18 -35 29 0 5 9 1 20
-8 11 -9 17 -19 15 -21z m2323 -26 c2 -10 -1 -23 -6 -28 -12 -12 -36 27 -27
43 10 15 29 5 33 -15z m-2267 -11 c-1 -15 -24 -12 -29 3 -3 9 2 13 12 10 10
-1 17 -7 17 -13z m-140 -28 c-1 -4 -3 -7 -6 -7 -40 0 -40 0 -25 10 16 10 32 9
31 -3z"/>
<path d="M3926 5254 c-9 -24 -7 -28 9 -14 17 14 20 30 6 30 -5 0 -12 -7 -15
-16z"/>
<path d="M4440 5090 c0 -5 5 -10 10 -10 6 0 10 5 10 10 0 6 -4 10 -10 10 -5 0
-10 -4 -10 -10z"/>
<path d="M3617 5013 c-4 -3 -7 -17 -7 -30 0 -35 34 -26 38 10 3 26 -14 37 -31
20z"/>
<path d="M4822 4998 c-14 -14 -16 -28 -3 -28 5 0 11 9 14 20 6 23 5 24 -11 8z"/>
<path d="M4765 4990 c-3 -5 -1 -10 4 -10 6 0 11 5 11 10 0 6 -2 10 -4 10 -3 0
-8 -4 -11 -10z"/>
<path d="M4870 4985 c7 -9 15 -13 17 -11 7 7 -7 26 -19 26 -6 0 -6 -6 2 -15z"/>
<path d="M4755 4960 c-3 -5 -1 -10 4 -10 6 0 11 5 11 10 0 6 -2 10 -4 10 -3 0
-8 -4 -11 -10z"/>
<path d="M4900 4930 c0 -16 2 -30 4 -30 2 0 6 14 8 30 3 17 1 30 -4 30 -4 0
-8 -13 -8 -30z"/>
<path d="M4991 4853 c16 -27 25 -29 33 -7 3 9 2 12 -5 9 -5 -4 -17 -1 -26 7
-15 12 -15 11 -2 -9z"/>
<path d="M4885 4789 c-4 -6 -5 -12 -2 -15 2 -3 7 2 10 11 7 17 1 20 -8 4z"/>
<path d="M4968 4793 c7 -3 16 -2 19 1 4 3 -2 6 -13 5 -11 0 -14 -3 -6 -6z"/>
<path d="M4914 4765 c-7 -30 -1 -40 19 -32 10 3 13 15 10 31 -7 33 -21 33 -29
1z"/>
<path d="M4874 4708 c-19 -21 -19 -21 6 -8 33 17 33 17 22 24 -5 3 -18 -4 -28
-16z"/>
<path d="M3478 4633 c7 -3 16 -2 19 1 4 3 -2 6 -13 5 -11 0 -14 -3 -6 -6z"/>
<path d="M5007 4610 c-6 -22 16 -27 43 -10 13 8 12 10 -2 10 -10 0 -18 5 -18
10 0 18 -18 10 -23 -10z"/>
<path d="M4983 4553 c2 -12 1 -21 -2 -19 -3 2 -13 -3 -21 -12 -13 -14 -12 -15
3 -9 11 4 17 1 17 -8 0 -8 5 -15 10 -15 9 0 14 16 8 23 -2 1 5 13 15 27 23 33
22 38 -9 36 -21 -1 -25 -5 -21 -23z"/>
<path d="M4941 4543 c-7 -8 -11 -16 -8 -19 2 -2 10 2 17 11 17 20 9 27 -9 8z"/>
<path d="M5028 4523 c7 -3 16 -2 19 1 4 3 -2 6 -13 5 -11 0 -14 -3 -6 -6z"/>
<path d="M4885 4489 c-11 -17 1 -21 23 -8 17 10 23 10 37 -5 21 -20 33 -13 15
9 -14 17 -66 20 -75 4z"/>
<path d="M5016 4483 c-6 -14 -5 -15 5 -6 7 7 10 15 7 18 -3 3 -9 -2 -12 -12z"/>
<path d="M5007 4434 c-17 -17 -5 -30 23 -26 27 4 44 22 21 22 -5 0 -16 2 -23
5 -8 3 -17 2 -21 -1z"/>
<path d="M4976 4401 c-4 -7 -5 -15 -2 -18 9 -9 19 4 14 18 -4 11 -6 11 -12 0z"/>
<path d="M5121 4394 c0 -11 3 -14 6 -6 3 7 2 16 -1 19 -3 4 -6 -2 -5 -13z"/>
<path d="M5056 4385 c-3 -8 -1 -15 4 -15 6 0 10 7 10 15 0 8 -2 15 -4 15 -2 0
-6 -7 -10 -15z"/>
<path d="M3368 4373 c7 -3 16 -2 19 1 4 3 -2 6 -13 5 -11 0 -14 -3 -6 -6z"/>
<path d="M5100 4331 c0 -5 7 -12 16 -15 24 -9 27 -7 10 9 -17 17 -26 19 -26 6z"/>
<path d="M3921 4304 c0 -11 3 -14 6 -6 3 7 2 16 -1 19 -3 4 -6 -2 -5 -13z"/>
<path d="M3979 4315 c-1 -3 -2 -9 -3 -14 0 -5 -4 -13 -8 -16 -12 -12 11 -45
30 -44 16 1 16 2 0 6 -10 2 -18 9 -18 15 0 5 6 8 13 5 8 -3 14 1 14 8 0 7 -6
11 -13 8 -9 -3 -12 2 -9 16 3 17 -2 32 -6 16z"/>
<path d="M4227 4299 c7 -7 15 -10 18 -7 3 3 -2 9 -12 12 -14 6 -15 5 -6 -5z"/>
<path d="M4387 4303 c-10 -9 -9 -23 1 -23 5 0 9 7 9 15 0 17 -1 18 -10 8z"/>
<path d="M4445 4300 c-3 -5 -1 -10 4 -10 6 0 11 5 11 10 0 6 -2 10 -4 10 -3 0
-8 -4 -11 -10z"/>
<path d="M4258 4273 c7 -3 16 -2 19 1 4 3 -2 6 -13 5 -11 0 -14 -3 -6 -6z"/>
<path d="M4086 4255 c-3 -8 -1 -15 4 -15 13 0 22 18 11 24 -5 3 -11 -1 -15 -9z"/>
<path d="M4329 4243 c-13 -17 -13 -17 6 -3 11 8 22 16 24 17 2 2 0 3 -6 3 -6
0 -17 -8 -24 -17z"/>
<path d="M4435 4250 c3 -5 8 -10 11 -10 2 0 4 5 4 10 0 6 -5 10 -11 10 -5 0
-7 -4 -4 -10z"/>
<path d="M4678 4253 c7 -3 16 -2 19 1 4 3 -2 6 -13 5 -11 0 -14 -3 -6 -6z"/>
<path d="M4243 4235 c-8 -22 5 -31 20 -15 9 10 9 11 0 6 -7 -4 -13 -3 -13 3 0
5 6 12 13 14 9 4 9 6 -1 6 -7 1 -15 -6 -19 -14z"/>
<path d="M4628 4243 c7 -3 16 -2 19 1 4 3 -2 6 -13 5 -11 0 -14 -3 -6 -6z"/>
<path d="M3990 4210 c-8 -5 -12 -12 -9 -15 4 -3 12 1 19 10 14 17 11 19 -10 5z"/>
<path d="M4296 4211 c-4 -7 -5 -15 -2 -18 9 -9 19 4 14 18 -4 11 -6 11 -12 0z"/>
<path d="M4354 4185 c-9 -14 -14 -28 -10 -32 3 -3 6 -2 6 4 0 6 9 13 20 16 11
3 20 12 20 21 0 24 -17 19 -36 -9z"/>
<path d="M4270 3970 c0 -5 -7 -10 -16 -10 -8 0 -12 -5 -9 -10 4 -7 13 -7 26 0
20 11 26 30 9 30 -5 0 -10 -4 -10 -10z"/>
<path d="M4305 3960 c-3 -5 -2 -10 4 -10 5 0 13 5 16 10 3 6 2 10 -4 10 -5 0
-13 -4 -16 -10z"/>
<path d="M3574 3385 c3 -21 16 -31 16 -12 0 9 -4 18 -9 21 -5 4 -8 -1 -7 -9z"/>
<path d="M3641 3354 c0 -11 3 -14 6 -6 3 7 2 16 -1 19 -3 4 -6 -2 -5 -13z"/>
<path d="M3577 3311 c-4 -17 -2 -18 13 -8 10 6 16 15 14 19 -9 14 -22 9 -27
-11z"/>
<path d="M3650 3320 c0 -5 5 -10 10 -10 6 0 10 5 10 10 0 6 -4 10 -10 10 -5 0
-10 -4 -10 -10z"/>
<path d="M3645 3285 c-3 -8 -7 -21 -9 -29 -3 -10 2 -12 16 -8 14 3 16 7 7 13
-10 6 -10 11 0 23 10 11 10 16 2 16 -6 0 -14 -7 -16 -15z"/>
<path d="M3703 3281 c-10 -15 -9 -20 2 -25 11 -4 15 2 15 19 0 30 -2 31 -17 6z"/>
<path d="M3528 3278 c-8 -7 -18 -24 -21 -38 l-6 -25 19 25 c11 14 20 29 20 33
0 5 10 5 23 2 17 -5 19 -4 7 4 -19 14 -23 14 -42 -1z"/>
<path d="M3594 3236 c-7 -8 -5 -17 8 -30 9 -10 15 -24 12 -30 -3 -6 3 0 14 14
12 14 20 25 19 25 -1 0 -11 8 -22 17 -15 12 -23 13 -31 4z"/>
<path d="M3528 3153 c-10 -2 -18 -9 -18 -14 0 -14 16 -11 30 6 7 8 11 14 9 14
-2 -1 -12 -3 -21 -6z"/>
<path d="M3595 3110 c-3 -5 -2 -10 4 -10 5 0 13 5 16 10 3 6 2 10 -4 10 -5 0
-13 -4 -16 -10z"/>
<path d="M3660 3110 c0 -5 5 -10 10 -10 6 0 10 5 10 10 0 6 -4 10 -10 10 -5 0
-10 -4 -10 -10z"/>
<path d="M3530 3080 c0 -5 5 -10 11 -10 5 0 7 5 4 10 -3 6 -8 10 -11 10 -2 0
-4 -4 -4 -10z"/>
<path d="M3594 3069 c-3 -6 -2 -15 3 -20 5 -5 9 -1 9 11 0 23 -2 24 -12 9z"/>
<path d="M3443 2962 c1 -12 6 -18 15 -15 7 3 10 9 5 12 -4 3 -11 10 -15 15 -4
4 -6 -1 -5 -12z"/>
<path d="M3570 2960 c0 -11 4 -20 9 -20 5 0 7 9 4 20 -3 11 -7 20 -9 20 -2 0
-4 -9 -4 -20z"/>
<path d="M3470 2935 c-7 -8 -9 -15 -6 -15 4 0 14 7 22 15 9 8 11 15 6 15 -5 0
-15 -7 -22 -15z"/>
<path d="M3346 2894 c-8 -21 -4 -25 14 -14 11 7 12 12 4 20 -8 8 -13 7 -18 -6z"/>
<path d="M3387 2884 c-4 -4 -7 -17 -7 -30 0 -12 -6 -25 -12 -28 -7 -3 1 -3 17
1 17 3 36 10 43 16 14 11 16 37 3 37 -5 0 -16 2 -23 5 -8 3 -17 2 -21 -1z"/>
<path d="M3610 2874 c0 -14 3 -14 15 -4 8 7 15 14 15 16 0 2 -7 4 -15 4 -8 0
-15 -7 -15 -16z"/>
<path d="M3656 2842 c6 -4 14 -16 19 -27 8 -19 8 -19 13 -1 2 10 -2 22 -10 27
-16 11 -38 12 -22 1z"/>
<path d="M3606 2803 c-6 -14 -5 -15 5 -6 7 7 10 15 7 18 -3 3 -9 -2 -12 -12z"/>
<path d="M3567 2788 c-8 -29 -4 -32 11 -8 6 10 8 21 3 24 -5 3 -11 -4 -14 -16z"/>
<path d="M3642 2798 c-16 -16 -15 -28 1 -28 7 0 13 9 13 20 0 11 -1 20 -1 20
-1 0 -6 -5 -13 -12z"/>
<path d="M3373 2783 c-7 -3 -13 -12 -13 -21 0 -15 2 -15 17 1 18 18 16 27 -4
20z"/>
<path d="M3411 2785 c-1 -6 4 -16 10 -22 12 -12 4 -33 -11 -33 -5 0 -6 7 -3
17 4 10 2 14 -4 10 -16 -10 -13 -59 3 -53 7 3 15 0 18 -7 5 -9 7 -9 12 1 3 6
12 12 20 12 24 0 16 40 -10 50 -13 5 -26 15 -29 22 -3 7 -6 8 -6 3z"/>
<path d="M3620 2735 c0 -18 19 -40 26 -32 4 4 0 15 -9 24 -9 10 -17 13 -17 8z"/>
<path d="M3346 2721 c-4 -5 3 -7 14 -4 23 6 26 13 6 13 -8 0 -17 -4 -20 -9z"/>
<path d="M4473 3132 c-37 -6 -26 -22 15 -22 20 0 33 4 27 8 -5 4 -12 10 -15
13 -3 2 -15 3 -27 1z"/>
<path d="M4432 2960 c0 -14 2 -19 5 -12 2 6 2 18 0 25 -3 6 -5 1 -5 -13z"/>
<path d="M4461 2954 c0 -11 3 -14 6 -6 3 7 2 16 -1 19 -3 4 -6 -2 -5 -13z"/>
<path d="M4411 2934 c0 -11 3 -14 6 -6 3 7 2 16 -1 19 -3 4 -6 -2 -5 -13z"/>
<path d="M3950 1550 c0 -5 7 -10 16 -10 8 0 12 5 9 10 -3 6 -10 10 -16 10 -5
0 -9 -4 -9 -10z"/>
<path d="M3940 1520 c-18 -12 -2 -12 25 0 13 6 15 9 5 9 -8 0 -22 -4 -30 -9z"/>
<path d="M3890 1510 c-9 -6 -10 -10 -3 -10 6 0 15 5 18 10 8 12 4 12 -15 0z"/>
<path d="M4040 1516 c0 -2 7 -7 16 -10 8 -3 12 -2 9 4 -6 10 -25 14 -25 6z"/>
<path d="M3980 1500 c0 -5 5 -10 10 -10 6 0 10 5 10 10 0 6 -4 10 -10 10 -5 0
-10 -4 -10 -10z"/>
<path d="M3920 1475 c-10 -12 -10 -15 4 -15 9 0 16 7 16 15 0 8 -2 15 -4 15
-2 0 -9 -7 -16 -15z"/>
<path d="M3820 1430 c0 -5 5 -10 10 -10 6 0 10 5 10 10 0 6 -4 10 -10 10 -5 0
-10 -4 -10 -10z"/>
<path d="M3895 1430 c-3 -5 -1 -10 4 -10 6 0 11 5 11 10 0 6 -2 10 -4 10 -3 0
-8 -4 -11 -10z"/>
<path d="M4252 1418 c-10 -12 -8 -19 8 -38 21 -24 24 -16 11 29 -5 20 -8 22
-19 9z"/>
<path d="M4330 1420 c0 -5 4 -10 9 -10 6 0 13 5 16 10 3 6 -1 10 -9 10 -9 0
-16 -4 -16 -10z"/>
<path d="M3970 1410 c-13 -8 -13 -10 2 -10 9 0 20 5 23 10 8 13 -5 13 -25 0z"/>
<path d="M4296 1393 c-6 -14 -5 -15 5 -6 7 7 10 15 7 18 -3 3 -9 -2 -12 -12z"/>
<path d="M3920 1390 c0 -5 5 -10 10 -10 6 0 10 5 10 10 0 6 -4 10 -10 10 -5 0
-10 -4 -10 -10z"/>
<path d="M3852 1360 c0 -14 2 -19 5 -12 2 6 2 18 0 25 -3 6 -5 1 -5 -13z"/>
<path d="M4077 1349 c7 -7 15 -10 18 -7 3 3 -2 9 -12 12 -14 6 -15 5 -6 -5z"/>
<path d="M4410 1339 c0 -5 5 -7 10 -4 6 3 10 8 10 11 0 2 -4 4 -10 4 -5 0 -10
-5 -10 -11z"/>
<path d="M3751 1294 c0 -11 3 -14 6 -6 3 7 2 16 -1 19 -3 4 -6 -2 -5 -13z"/>
<path d="M4190 1294 c0 -8 5 -12 10 -9 6 4 8 11 5 16 -9 14 -15 11 -15 -7z"/>
<path d="M3845 1280 c3 -5 8 -10 11 -10 2 0 4 5 4 10 0 6 -5 10 -11 10 -5 0
-7 -4 -4 -10z"/>
<path d="M3910 1256 c0 -2 7 -7 16 -10 8 -3 12 -2 9 4 -6 10 -25 14 -25 6z"/>
<path d="M4130 1193 c69 -23 73 -23 60 -8 -7 8 -27 15 -44 14 -17 0 -24 -3
-16 -6z"/>
<path d="M4080 1170 c-8 -16 -8 -18 4 -14 17 6 30 34 16 34 -5 0 -14 -9 -20
-20z"/>
<path d="M4128 1173 c-27 -7 -21 -23 7 -21 14 1 25 6 25 10 0 11 -13 15 -32
11z"/>
<path d="M4045 1160 c-3 -5 -1 -10 4 -10 6 0 11 5 11 10 0 6 -2 10 -4 10 -3 0
-8 -4 -11 -10z"/>
<path d="M4000 1130 c0 -5 14 -10 30 -10 17 0 30 5 30 10 0 6 -13 10 -30 10
-16 0 -30 -4 -30 -10z"/>
<path d="M685 6210 c3 -5 12 -7 20 -3 21 7 19 13 -6 13 -11 0 -18 -4 -14 -10z"/>
<path d="M526 5868 c-26 -24 -46 -88 -27 -88 6 0 11 4 11 10 0 5 13 22 28 37
55 53 43 91 -12 41z"/>
<path d="M500 5000 c0 -11 5 -20 10 -20 6 0 10 9 10 20 0 11 -4 20 -10 20 -5
0 -10 -9 -10 -20z"/>
<path d="M380 4549 c0 -6 9 -13 21 -16 16 -4 19 -11 15 -32 -6 -25 7 -61 18
-50 3 3 3 29 -1 57 -5 46 -8 52 -29 52 -13 0 -24 -5 -24 -11z"/>
<path d="M530 4381 c0 -22 -3 -47 -7 -57 -6 -16 -4 -16 23 3 16 11 36 23 44
26 9 3 10 6 3 6 -7 1 -13 9 -13 19 0 21 -18 42 -37 42 -8 0 -13 -14 -13 -39z"/>
<path d="M721 3561 c-32 -9 -48 -54 -31 -87 16 -30 27 -23 51 33 28 66 27 68
-20 54z"/>
<path d="M1070 3010 c0 -5 5 -10 11 -10 5 0 7 5 4 10 -3 6 -8 10 -11 10 -2 0
-4 -4 -4 -10z"/>
<path d="M4984 25 c3 -9 6 -19 6 -21 0 -2 7 -4 16 -4 22 0 13 34 -10 38 -14 3
-17 0 -12 -13z"/>
</g>
</svg>
